<svg width="1133" height="945" viewBox="0 0 1133 945" fill="none" xmlns="http://www.w3.org/2000/svg">
<path fill-rule="evenodd" clip-rule="evenodd" d="M345.889 -598.42C527.438 -570.91 564.699 -316.826 705.859 -199.381C831.946 -94.4774 1060.09 -108.178 1119.08 44.8727C1177.82 197.248 1035.38 348.768 975.753 500.797C920.59 641.448 910.207 816.151 784.015 899.21C658.877 981.575 494.905 930.75 345.889 915.369C213.293 901.682 88.0776 874.762 -31.1142 815.073C-172.726 744.155 -328.769 679.169 -404.041 539.813C-486.042 387.999 -508.231 199.96 -451.351 37.0584C-395.012 -124.295 -236.774 -215.445 -103.136 -321.967C37.7594 -434.275 167.749 -625.413 345.889 -598.42Z" fill="#0B75D3"/>
<circle cx="919" cy="26" r="38" stroke="#3F96E3" stroke-opacity="0.23" stroke-width="6"/>
<circle cx="366" cy="108" r="38" stroke="#3F96E3" stroke-opacity="0.23" stroke-width="6"/>
<circle cx="99" cy="581" r="38" stroke="#3F96E3" stroke-opacity="0.23" stroke-width="6"/>
<circle cx="407" cy="796" r="38" stroke="#3F96E3" stroke-opacity="0.23" stroke-width="6"/>
<circle cx="800" cy="622" r="38" stroke="#3F96E3" stroke-opacity="0.23" stroke-width="6"/>
<circle cx="663" cy="260" r="38" stroke="#3F96E3" stroke-opacity="0.23" stroke-width="6"/>
<path d="M97.5063 257.579L155.549 210.91L166.945 284.511L97.5063 257.579Z" stroke="#3F96E3" stroke-opacity="0.23" stroke-width="7"/>
<path d="M899.069 242.52L899.332 195.104L940.264 219.04L899.069 242.52Z" stroke="#3F96E3" stroke-opacity="0.23" stroke-width="7"/>
<path d="M296.592 652.62L319.205 583.834L367.469 637.811L296.592 652.62Z" stroke="#3F96E3" stroke-opacity="0.23" stroke-width="7"/>
<rect x="98.0292" y="-33.1995" width="56.0495" height="56.0495" transform="rotate(20.5064 98.0292 -33.1995)" stroke="#3F96E3" stroke-opacity="0.23" stroke-width="8"/>
<rect x="308.486" y="367.779" width="56.0495" height="56.0495" transform="rotate(-7.4762 308.486 367.779)" stroke="#3F96E3" stroke-opacity="0.23" stroke-width="8"/>
<line x1="524.391" y1="480.268" x2="582.667" y2="417.022" stroke="#3F96E3" stroke-opacity="0.23" stroke-width="4"/>
<line x1="524.732" y1="419.392" x2="587.978" y2="477.667" stroke="#3F96E3" stroke-opacity="0.23" stroke-width="4"/>
</svg>
